<?xml version="1.0" encoding="UTF-8" standalone="no"?>
<!-- Created with Inkscape (http://www.inkscape.org/) -->
<svg
   xmlns:dc="http://purl.org/dc/elements/1.1/"
   xmlns:cc="http://creativecommons.org/ns#"
   xmlns:rdf="http://www.w3.org/1999/02/22-rdf-syntax-ns#"
   xmlns:svg="http://www.w3.org/2000/svg"
   xmlns="http://www.w3.org/2000/svg"
   xmlns:sodipodi="http://sodipodi.sourceforge.net/DTD/sodipodi-0.dtd"
   xmlns:inkscape="http://www.inkscape.org/namespaces/inkscape"
   width="48"
   height="48"
   id="svg2"
   sodipodi:version="0.32"
   inkscape:version="0.46"
   version="1.0"
   sodipodi:docname="cangjie5.svg"
   inkscape:output_extension="org.inkscape.output.svg.inkscape">
  <defs
     id="defs4">
    <inkscape:perspective
       sodipodi:type="inkscape:persp3d"
       inkscape:vp_x="0 : 526.18109 : 1"
       inkscape:vp_y="0 : 1000 : 0"
       inkscape:vp_z="744.09448 : 526.18109 : 1"
       inkscape:persp3d-origin="372.04724 : 350.78739 : 1"
       id="perspective10" />
  </defs>
  <sodipodi:namedview
     id="base"
     pagecolor="#ffffff"
     bordercolor="#666666"
     borderopacity="1.0"
     gridtolerance="10000"
     guidetolerance="10"
     objecttolerance="10"
     inkscape:pageopacity="0.0"
     inkscape:pageshadow="2"
     inkscape:zoom="7.919596"
     inkscape:cx="23.620643"
     inkscape:cy="17.498494"
     inkscape:document-units="px"
     inkscape:current-layer="layer1"
     showgrid="false"
     inkscape:window-width="977"
     inkscape:window-height="737"
     inkscape:window-x="41"
     inkscape:window-y="0" />
  <metadata
     id="metadata7">
    <rdf:RDF>
      <cc:Work
         rdf:about="">
        <dc:format>image/svg+xml</dc:format>
        <dc:type
           rdf:resource="http://purl.org/dc/dcmitype/StillImage" />
      </cc:Work>
    </rdf:RDF>
  </metadata>
  <g
     inkscape:label="Layer 1"
     inkscape:groupmode="layer"
     id="layer1">
    <path
       style="font-size:36.91011047px;font-style:normal;font-variant:normal;font-weight:normal;font-stretch:normal;fill:#5b5b5b;fill-opacity:1;stroke:none;stroke-width:1px;stroke-linecap:butt;stroke-linejoin:miter;stroke-opacity:1;font-family:'方正楷体';-inkscape-font-specification:'方正楷体'"
       d="M 22.21875 5.09375 C 22.043983 5.2685172 22.0625 5.4317158 22.0625 5.78125 C 22.062499 6.4803184 22.0625 7.0069486 22.0625 7.53125 C 18.916692 13.822866 14.003418 19.588005 7.1875 24.65625 C 6.4884315 25.005785 6.3252341 25.356483 6.5 25.53125 C 6.4999998 25.880783 7.0196814 25.724534 7.71875 25.375 C 13.660831 22.403961 18.919021 17.340218 23.8125 10 C 30.803183 16.990684 34.989596 20.650466 36.5625 21 C 38.834471 21.349533 41.616924 21.362267 44.9375 21.1875 C 45.461801 21.1875 45.825232 21.005784 46 20.65625 C 45.825232 20.306715 45.461801 20.112267 44.9375 19.9375 C 38.29635 18.888896 31.503417 15.416616 24.6875 9.125 C 24.6875 8.9502331 25.025466 8.5995343 25.375 8.25 C 25.724535 7.9004658 25.90625 7.7245343 25.90625 7.375 C 25.20718 6.3263974 23.966422 5.6180514 22.21875 5.09375 z M 22.78125 15.34375 C 21.92926 15.34375 21.587675 15.544274 21.71875 15.9375 C 21.71875 16.112267 21.869216 16.275466 22.21875 16.625 C 23.092586 17.84837 23.800931 18.712966 24.5 19.0625 C 25.548601 19.412035 25.90625 18.71642 25.90625 16.96875 C 25.556715 16.269682 24.861103 15.755784 23.8125 15.40625 C 23.419274 15.362558 23.065247 15.34375 22.78125 15.34375 z M 28.875 19.4375 C 28.700233 19.4375 28.537034 19.606483 28.1875 19.78125 C 26.090296 20.829853 23.445574 21.1875 20.125 21.1875 C 18.552095 20.837966 17.693284 20.637733 17.34375 20.8125 C 17.168984 20.812501 17.168983 21.181715 17.34375 21.53125 C 17.518518 22.230319 17.6875 22.913199 17.6875 23.4375 C 17.163199 30.602952 13.848333 36.731522 7.90625 41.625 C 7.2071827 42.149303 7.0127329 42.481483 7.1875 42.65625 C 7.3622672 42.831019 7.7384315 42.680551 8.4375 42.15625 C 12.981444 39.534743 16.277794 35.843713 18.375 31.125 C 19.662289 31.125 21.543634 31.040728 23.96875 30.78125 C 24.043399 30.282766 24.170161 29.78549 24.3125 29.3125 C 23.880415 29.377681 23.444679 29.453819 22.9375 29.5625 C 21.189829 29.912034 19.798603 30.09375 18.75 30.09375 C 19.099536 28.695613 19.4375 27.824068 19.4375 27.125 C 20.755224 27.125001 22.911106 26.787154 25.78125 26.3125 C 26.08273 25.884662 26.420678 25.502429 26.78125 25.125 C 26.596423 24.964258 26.35945 24.84375 26.0625 24.84375 C 24.664363 24.843749 22.596041 25.194449 19.625 25.71875 C 19.625 25.369217 19.606483 25.011568 19.78125 24.3125 C 19.956017 23.438665 20.125 22.755785 20.125 22.40625 C 24.144643 21.881948 26.594915 21.53125 27.46875 21.53125 C 28.342585 21.356483 28.6875 21.701398 28.6875 22.75 C 28.6875 23.023492 28.66638 23.289312 28.65625 23.5625 C 29.808004 22.813302 31.09574 22.280365 32.5 22.03125 C 32.526739 21.97882 32.53125 21.92743 32.53125 21.875 C 31.482647 20.826397 30.273137 19.961802 28.875 19.4375 z M 24.125 34.71875 C 22.849662 34.916588 21.524515 35.082591 20.125 35.15625 C 18.202561 34.981483 17.15625 34.981483 17.15625 35.15625 C 16.981483 35.505785 17.150466 35.837966 17.5 36.1875 C 17.849533 36.711803 18.043982 37.087967 18.21875 37.4375 C 18.21875 37.961804 18.387733 38.638898 18.5625 39.6875 C 18.912034 41.260405 19.075233 42.306716 19.25 42.65625 C 19.424766 43.355321 19.788198 43.90625 20.3125 43.90625 C 20.662034 43.906249 21 43.373836 21 42.5 C 23.097206 42.500001 25.898174 42.149302 29.21875 41.625 C 29.301821 41.625 29.357738 41.596609 29.4375 41.59375 C 28.695278 41.199189 28.029013 40.710553 27.40625 40.15625 C 25.627965 40.471925 23.520399 40.826085 20.84375 41.09375 L 20.46875 36.375 C 22.253572 36.196519 23.340225 36.068582 24.53125 35.9375 C 24.383168 35.533984 24.223092 35.143736 24.125 34.71875 z "
       id="text3157" />
    <path
       style="font-size:36.91011047px;font-style:normal;font-variant:normal;font-weight:normal;font-stretch:normal;fill:#ff0000;fill-opacity:1;stroke:none;stroke-width:1px;stroke-linecap:butt;stroke-linejoin:miter;stroke-opacity:1;font-family:'方正楷体';-inkscape-font-specification:'方正楷体'"
       d="M 21.78125 4.09375 C 21.606484 4.2685174 21.625 4.4629657 21.625 4.8125 C 21.624999 5.5115683 21.625 6.0381987 21.625 6.5625 C 18.479192 12.854117 13.565917 18.619254 6.75 23.6875 C 6.0509314 24.037033 5.8877329 24.387732 6.0625 24.5625 C 6.0624998 24.912034 6.5821816 24.724535 7.28125 24.375 C 13.223332 21.403959 18.48152 16.340219 23.375 9 C 30.365684 15.990684 34.552095 19.650466 36.125 20 C 38.39697 20.349536 41.179425 20.362268 44.5 20.1875 C 45.024301 20.187499 45.387733 20.005784 45.5625 19.65625 C 45.387733 19.306716 45.024302 19.143517 44.5 18.96875 C 37.858849 17.920147 31.065918 14.416616 24.25 8.125 C 24.25 7.9502329 24.587966 7.5995342 24.9375 7.25 C 25.287034 6.900466 25.46875 6.7245342 25.46875 6.375 C 24.769682 5.3263972 23.52892 4.6180513 21.78125 4.09375 z M 22.34375 14.34375 C 21.49176 14.34375 21.150175 14.544275 21.28125 14.9375 C 21.28125 15.112268 21.431716 15.306716 21.78125 15.65625 C 22.655086 16.87962 23.363432 17.744215 24.0625 18.09375 C 25.111103 18.443283 25.46875 17.747671 25.46875 16 C 25.119216 15.300931 24.423601 14.755784 23.375 14.40625 C 22.981774 14.362558 22.627747 14.34375 22.34375 14.34375 z M 28.4375 18.4375 C 28.262732 18.4375 28.068284 18.606483 27.71875 18.78125 C 25.621543 19.829852 23.008076 20.1875 19.6875 20.1875 C 18.114597 19.837965 17.255784 19.668983 16.90625 19.84375 C 16.731483 19.84375 16.731482 20.181715 16.90625 20.53125 C 17.081018 21.230317 17.25 21.944448 17.25 22.46875 C 16.725698 29.634202 13.410832 35.731521 7.46875 40.625 C 6.7696815 41.1493 6.5752328 41.512733 6.75 41.6875 C 6.9247669 41.862267 7.3009316 41.680551 8 41.15625 C 12.543944 38.534745 15.840294 34.874961 17.9375 30.15625 C 19.339508 30.15625 21.467085 30.033919 24.21875 29.71875 C 24.350313 29.208658 24.484106 28.695716 24.6875 28.21875 C 24.04638 28.28143 23.354063 28.379487 22.5 28.5625 C 20.752328 28.912034 19.329853 29.09375 18.28125 29.09375 C 18.630785 27.695613 19 26.824069 19 26.125 C 20.398137 26.125 22.666693 25.774302 25.8125 25.25 C 26.336801 25.25 26.6875 24.912034 26.6875 24.5625 C 26.512733 24.212965 26.149301 23.84375 25.625 23.84375 C 24.226862 23.843751 22.12729 24.194448 19.15625 24.71875 C 19.156249 24.369215 19.168983 24.042819 19.34375 23.34375 C 19.518517 22.469914 19.6875 21.755784 19.6875 21.40625 C 23.707144 20.881948 26.157414 20.53125 27.03125 20.53125 C 27.905085 20.356482 28.25 20.701397 28.25 21.75 C 28.25 22.465764 28.194383 23.19595 28.125 23.90625 C 28.965092 23.284423 29.900445 22.818999 30.90625 22.46875 C 30.986649 22.13165 31.298176 21.707466 31.75 21.40625 C 31.924768 21.231483 32.09375 21.049766 32.09375 20.875 C 31.045148 19.826396 29.835638 18.961801 28.4375 18.4375 z M 23.9375 33.71875 C 22.588421 33.937878 21.177294 34.07784 19.6875 34.15625 C 17.765063 33.981482 16.71875 33.981483 16.71875 34.15625 C 16.543982 34.505783 16.712965 34.869216 17.0625 35.21875 C 17.412033 35.743054 17.606483 36.087965 17.78125 36.4375 C 17.78125 36.961801 17.950233 37.670147 18.125 38.71875 C 18.474534 40.291652 18.637734 41.337965 18.8125 41.6875 C 18.987267 42.386568 19.350699 42.90625 19.875 42.90625 C 20.224534 42.906252 20.5625 42.373834 20.5625 41.5 C 22.508436 41.5 25.083704 41.180998 28.09375 40.71875 C 27.511841 40.282681 26.948162 39.795305 26.46875 39.25 C 24.771495 39.544926 22.840892 39.881536 20.40625 40.125 L 20.03125 35.40625 C 21.85726 35.223649 22.982677 35.070321 24.1875 34.9375 C 24.08748 34.543683 23.991457 34.128887 23.9375 33.71875 z "
       id="text2383" />
    <path
       style="opacity:1;color:#000000;fill:#2ec800;fill-opacity:1;fill-rule:nonzero;stroke:none;stroke-width:2;stroke-linecap:butt;stroke-linejoin:miter;marker:none;marker-start:none;marker-mid:none;marker-end:none;stroke-miterlimit:4;stroke-dasharray:none;stroke-dashoffset:0;stroke-opacity:1;visibility:visible;display:inline;overflow:visible;enable-background:accumulate"
       d="M 34.35043,21.868023 C 28.565286,21.868023 23.85043,26.55163 23.85043,32.336773 C 23.85043,38.121917 28.565287,42.836773 34.35043,42.836773 C 40.135574,42.836773 44.819181,38.121917 44.81918,32.336773 C 44.81918,26.551629 40.135575,21.868023 34.35043,21.868023 z M 37.00668,25.368023 C 37.443421,25.352085 37.703988,25.444985 38.00668,25.618023 C 38.577471,25.927668 38.504359,26.289986 37.88168,26.399273 C 37.259,26.526775 34.759887,26.896773 33.75668,27.024273 C 34.621513,27.552493 34.599849,27.795341 34.44418,28.086773 C 34.167434,28.596778 33.990986,29.194968 33.50668,30.961773 C 34.613666,30.761413 35.587057,30.558025 35.72543,30.430523 C 36.088659,30.139092 36.360019,30.120876 37.06918,30.430523 C 38.05509,30.885885 38.005518,31.152127 37.69418,31.461773 C 37.279059,31.862491 37.050722,32.28301 36.75668,33.430523 C 36.44534,34.632679 36.266129,35.24873 36.00668,35.868023 C 37.217446,35.77695 38.080369,35.654452 38.28793,35.618023 C 39.84463,35.39945 40.495627,35.488195 41.25668,35.961773 C 42.225293,36.562851 41.879803,37.248027 40.44418,36.993023 C 39.25071,36.774449 35.705095,36.664986 33.97543,36.774273 C 31.969017,36.901774 29.90887,37.183376 28.81918,37.493023 C 27.556524,37.857311 27.36875,37.878028 26.69418,37.368023 C 26.157983,36.967305 26.265688,36.68838 26.81918,36.743023 C 27.095926,36.779452 27.415661,36.755706 30.94418,36.336773 C 31.411191,35.079975 31.938653,33.171609 32.31918,31.805523 C 30.468437,32.279099 30.324128,32.294812 29.78793,31.930523 C 29.234437,31.584448 29.34214,31.425344 29.91293,31.461773 C 30.189676,31.479987 31.330507,31.318381 32.50668,31.118023 C 33.042877,29.023358 33.207556,27.883031 33.06918,27.118023 C 31.495184,27.318382 31.344766,27.284455 30.75668,26.993023 C 30.220484,26.683377 30.286327,26.493023 30.78793,26.493023 C 31.583576,26.493023 33.792572,26.138562 35.03793,25.774273 C 35.963301,25.501055 36.569939,25.383961 37.00668,25.368023 z M 35.85043,31.305523 C 35.469903,31.305523 34.256544,31.485341 33.28793,31.649273 C 32.76903,33.288575 32.234301,35.009618 31.81918,36.211773 C 32.874277,36.102487 33.443293,36.039811 35.06918,35.930523 C 35.32863,35.092658 35.667434,33.515182 35.94418,31.930523 C 36.04796,31.34766 36.0061,31.305523 35.85043,31.305523 z"
       id="path2382" />
  </g>
</svg>
