<?xml version="1.0" encoding="UTF-8" standalone="no"?>
<!-- Created with Inkscape (http://www.inkscape.org/) -->
<svg
   xmlns:dc="http://purl.org/dc/elements/1.1/"
   xmlns:cc="http://creativecommons.org/ns#"
   xmlns:rdf="http://www.w3.org/1999/02/22-rdf-syntax-ns#"
   xmlns:svg="http://www.w3.org/2000/svg"
   xmlns="http://www.w3.org/2000/svg"
   xmlns:sodipodi="http://sodipodi.sourceforge.net/DTD/sodipodi-0.dtd"
   xmlns:inkscape="http://www.inkscape.org/namespaces/inkscape"
   width="48"
   height="48"
   id="svg2"
   sodipodi:version="0.32"
   inkscape:version="0.46"
   version="1.0"
   sodipodi:docname="erbi-qs.svg"
   inkscape:output_extension="org.inkscape.output.svg.inkscape">
  <defs
     id="defs4">
    <inkscape:perspective
       sodipodi:type="inkscape:persp3d"
       inkscape:vp_x="0 : 526.18109 : 1"
       inkscape:vp_y="0 : 1000 : 0"
       inkscape:vp_z="744.09448 : 526.18109 : 1"
       inkscape:persp3d-origin="372.04724 : 350.78739 : 1"
       id="perspective10" />
  </defs>
  <sodipodi:namedview
     id="base"
     pagecolor="#ffffff"
     bordercolor="#666666"
     borderopacity="1.0"
     gridtolerance="10000"
     guidetolerance="10"
     objecttolerance="10"
     inkscape:pageopacity="0.0"
     inkscape:pageshadow="2"
     inkscape:zoom="2.8"
     inkscape:cx="-5.4148027"
     inkscape:cy="15.206296"
     inkscape:document-units="px"
     inkscape:current-layer="layer1"
     showgrid="false"
     inkscape:window-width="1041"
     inkscape:window-height="737"
     inkscape:window-x="-20"
     inkscape:window-y="44" />
  <metadata
     id="metadata7">
    <rdf:RDF>
      <cc:Work
         rdf:about="">
        <dc:format>image/svg+xml</dc:format>
        <dc:type
           rdf:resource="http://purl.org/dc/dcmitype/StillImage" />
      </cc:Work>
    </rdf:RDF>
  </metadata>
  <g
     inkscape:label="Layer 1"
     inkscape:groupmode="layer"
     id="layer1">
    <g
       id="g3160"
       transform="matrix(1.0330145,0,0,1.0330145,-1.1228191,-1.6124056)">
      <path
         id="path3158"
         d="M 22.718651,5.8833987 C 22.093651,6.0396477 21.937401,6.3521487 22.093651,6.8208987 C 22.71865,7.7583977 23.031151,9.0084007 23.031151,10.883399 C 22.718651,11.039649 21.937399,11.195899 20.374901,11.508399 C 18.031153,11.977148 16.46865,12.289649 15.843651,12.445899 C 15.218651,12.758398 15.687402,13.070899 17.249901,13.383399 C 18.812399,13.383399 20.843653,13.070898 23.031151,12.445899 L 23.031151,16.039649 C 22.718651,16.195899 21.937399,16.352149 20.531151,16.664649 C 18.968652,16.977148 17.8749,17.289649 16.937401,17.445899 C 15.999902,17.914648 16.468653,18.227149 18.499901,18.227149 C 18.96865,18.227149 19.906152,18.227148 21.156151,17.914649 C 22.09365,17.758399 22.718651,17.602149 22.874901,17.602149 L 22.874901,20.727149 C 15.999908,22.289647 10.843647,23.070899 7.4061504,23.227149 C 6.7811514,23.227149 6.6249014,23.539649 7.2499004,24.008399 C 8.1873994,24.945898 9.1249014,25.414649 9.7499004,25.414649 C 9.9061504,25.414649 10.0624,25.414649 10.21865,25.258399 C 14.281147,23.85215 18.812406,22.758398 23.812401,21.820899 C 30.062394,20.8834 35.374905,20.727149 39.906151,21.195899 C 41.156149,21.508398 41.781151,21.508398 42.093651,21.195899 C 42.40615,19.6334 41.156148,18.695898 38.187401,18.383399 C 37.874901,18.383399 35.062396,18.6959 30.062401,19.633399 C 28.031153,20.102148 26.312399,20.414649 24.906151,20.570899 L 25.062401,17.133399 C 25.6874,17.133399 26.468652,16.977148 27.562401,16.664649 C 29.749899,16.352149 30.843651,16.195898 31.156151,15.883399 C 31.312401,15.258399 30.531149,14.789649 28.656151,14.789649 C 28.187401,14.789649 27.40615,14.945899 26.468651,15.258399 C 25.999901,15.414649 25.53115,15.570899 25.062401,15.570899 L 25.218651,12.133399 C 26.15615,11.977149 27.249902,11.820898 28.499901,11.508399 C 31.156148,11.195899 32.562401,10.727148 32.562401,10.414649 C 32.562401,9.4771497 31.781149,9.1646487 30.062401,9.3208987 C 28.499902,9.6333977 26.937399,10.102149 25.374901,10.414649 C 25.374901,9.4771497 25.531151,8.3833977 25.843651,7.4458987 C 25.843651,6.8208987 24.749899,6.1958977 22.718651,5.8833987 M 27.874901,23.539649 C 25.687403,24.789648 23.031148,25.414649 20.062401,25.570899 C 18.968652,25.570899 18.343651,25.414649 18.187401,25.414649 C 17.718651,25.414649 17.406151,25.570899 17.406151,25.727149 C 17.406151,25.883399 17.406151,26.195899 17.718651,26.508399 C 18.34365,27.445898 18.4999,29.633402 17.874901,33.070899 C 17.562401,34.789647 17.09365,36.508401 16.468651,38.383399 C 16.312401,39.008398 16.156151,39.477149 16.156151,39.477149 C 16.46865,41.508397 16.937401,42.602149 17.562401,42.758399 C 18.1874,42.914649 18.499901,41.977147 18.812401,39.789649 C 18.812401,39.789649 18.968651,39.477148 18.968651,39.164649 L 19.437401,34.945899 C 23.187397,34.945899 25.999902,34.477148 27.562401,33.852149 C 27.8749,33.0709 27.249899,32.758399 25.687401,32.758399 C 25.374901,32.758399 24.437399,32.914649 22.874901,33.227149 C 21.312402,33.539648 20.21865,33.695899 19.593651,33.695899 C 19.749901,33.383399 19.906151,32.445897 19.906151,30.883399 C 23.031148,30.883399 25.374902,30.414648 27.093651,29.477149 C 27.40615,28.6959 26.624899,28.539649 24.906151,28.852149 C 24.593651,29.008399 23.656149,29.164649 22.249901,29.477149 C 21.312402,29.789648 20.53115,29.945899 19.906151,29.945899 C 20.062401,29.0084 20.218651,28.070898 20.218651,26.820899 C 24.281147,25.8834 27.093652,25.570899 28.499901,25.727149 C 29.1249,26.195898 29.437401,28.070902 29.593651,31.508399 C 29.90615,35.883394 29.90615,38.3834 29.593651,39.320899 C 29.593651,39.945898 28.656149,39.945898 26.937401,39.477149 C 26.312401,39.477149 25.843651,39.477149 25.687401,39.633399 C 25.687401,39.789649 25.843651,40.102149 26.468651,40.414649 C 27.40615,41.195898 28.343652,42.1334 29.124901,43.227149 C 29.7499,44.164648 30.374901,44.320898 30.687401,44.008399 C 31.937399,42.91465 32.718651,41.352147 32.718651,39.164649 C 32.718651,38.539649 32.5624,36.039645 31.937401,31.977149 C 31.937401,31.352149 31.781151,31.039648 31.781151,30.727149 C 31.624901,29.008401 31.781151,27.445897 32.249901,26.039649 C 31.468652,24.164651 30.062399,23.383399 27.874901,23.539649"
         style="font-size:40px;font-style:normal;font-variant:normal;font-weight:normal;font-stretch:normal;fill:#878d8c;fill-opacity:1;stroke:none;stroke-width:1px;stroke-linecap:butt;stroke-linejoin:miter;stroke-opacity:1;font-family:'方正楷体';-inkscape-font-specification:'方正楷体'" />
      <path
         id="text2383"
         d="M 22.366071,5.4330368 C 21.741071,5.5892866 21.584821,5.9017873 21.741071,6.3705368 C 22.36607,7.3080359 22.678571,8.5580387 22.678571,10.433037 C 22.366071,10.589287 21.584819,10.745537 20.022321,11.058037 C 17.678573,11.526786 16.11607,11.839287 15.491071,11.995537 C 14.866071,12.308036 15.334822,12.620537 16.897321,12.933037 C 18.459819,12.933037 20.491073,12.620536 22.678571,11.995537 L 22.678571,15.589287 C 22.366071,15.745537 21.584819,15.901787 20.178571,16.214287 C 18.616072,16.526786 17.52232,16.839287 16.584821,16.995537 C 15.647322,17.464286 16.116073,17.776787 18.147321,17.776787 C 18.61607,17.776787 19.553572,17.776786 20.803571,17.464287 C 21.74107,17.308037 22.366071,17.151787 22.522321,17.151787 L 22.522321,20.276787 C 15.647328,21.839285 10.491067,22.620537 7.0535707,22.776787 C 6.4285714,22.776787 6.2723214,23.089287 6.8973207,23.558037 C 7.8348198,24.495536 8.7723214,24.964287 9.3973207,24.964287 C 9.5535706,24.964287 9.7098209,24.964287 9.8660707,24.808037 C 13.928567,23.401788 18.459826,22.308036 23.459821,21.370537 C 29.709814,20.433038 35.022325,20.276787 39.553571,20.745537 C 40.803569,21.058036 41.428571,21.058036 41.741071,20.745537 C 42.05357,19.183038 40.803568,18.245536 37.834821,17.933037 C 37.522321,17.933037 34.709816,18.245538 29.709821,19.183037 C 27.678573,19.651786 25.959819,19.964287 24.553571,20.120537 L 24.709821,16.683037 C 25.33482,16.683037 26.116072,16.526786 27.209821,16.214287 C 29.397319,15.901787 30.491071,15.745536 30.803571,15.433037 C 30.959821,14.808037 30.178569,14.339287 28.303571,14.339287 C 27.834821,14.339287 27.05357,14.495537 26.116071,14.808037 C 25.647321,14.964287 25.17857,15.120537 24.709821,15.120537 L 24.866071,11.683037 C 25.80357,11.526787 26.897322,11.370536 28.147321,11.058037 C 30.803568,10.745537 32.209821,10.276786 32.209821,9.9642868 C 32.209821,9.0267877 31.428569,8.714287 29.709821,8.8705368 C 28.147322,9.1830365 26.584819,9.6517871 25.022321,9.9642868 C 25.022321,9.0267877 25.178571,7.9330359 25.491071,6.9955368 C 25.491071,6.3705374 24.397319,5.7455365 22.366071,5.4330368 M 27.522321,23.089287 C 25.334823,24.339286 22.678568,24.964287 19.709821,25.120537 C 18.616072,25.120537 17.991071,24.964287 17.834821,24.964287 C 17.366071,24.964287 17.053571,25.120537 17.053571,25.276787 C 17.053571,25.433037 17.053571,25.745537 17.366071,26.058037 C 17.99107,26.995536 18.14732,29.18304 17.522321,32.620537 C 17.209821,34.339285 16.74107,36.058039 16.116071,37.933037 C 15.959821,38.558036 15.803571,39.026787 15.803571,39.026787 C 16.11607,41.058035 16.584821,42.151787 17.209821,42.308037 C 17.83482,42.464287 18.147321,41.526785 18.459821,39.339287 C 18.459821,39.339287 18.616071,39.026786 18.616071,38.714287 L 19.084821,34.495537 C 22.834817,34.495537 25.647322,34.026786 27.209821,33.401787 C 27.52232,32.620538 26.897319,32.308037 25.334821,32.308037 C 25.022321,32.308037 24.084819,32.464287 22.522321,32.776787 C 20.959822,33.089286 19.86607,33.245537 19.241071,33.245537 C 19.397321,32.933037 19.553571,31.995535 19.553571,30.433037 C 22.678568,30.433037 25.022322,29.964286 26.741071,29.026787 C 27.05357,28.245538 26.272319,28.089287 24.553571,28.401787 C 24.241071,28.558037 23.303569,28.714287 21.897321,29.026787 C 20.959822,29.339286 20.17857,29.495537 19.553571,29.495537 C 19.709821,28.558038 19.866071,27.620536 19.866071,26.370537 C 23.928567,25.433038 26.741072,25.120537 28.147321,25.276787 C 28.77232,25.745536 29.084821,27.62054 29.241071,31.058037 C 29.55357,35.433032 29.55357,37.933038 29.241071,38.870537 C 29.241071,39.495536 28.303569,39.495536 26.584821,39.026787 C 25.959821,39.026787 25.491071,39.026787 25.334821,39.183037 C 25.334821,39.339287 25.491071,39.651787 26.116071,39.964287 C 27.05357,40.745536 27.991072,41.683038 28.772321,42.776787 C 29.39732,43.714286 30.022321,43.870536 30.334821,43.558037 C 31.584819,42.464288 32.366071,40.901785 32.366071,38.714287 C 32.366071,38.089287 32.20982,35.589283 31.584821,31.526787 C 31.584821,30.901787 31.428571,30.589286 31.428571,30.276787 C 31.272321,28.558039 31.428571,26.995535 31.897321,25.589287 C 31.116072,23.714289 29.709819,22.933037 27.522321,23.089287"
         style="font-size:40px;font-style:normal;font-variant:normal;font-weight:normal;font-stretch:normal;fill:#158777;fill-opacity:1;stroke:none;stroke-width:1px;stroke-linecap:butt;stroke-linejoin:miter;stroke-opacity:1;font-family:'方正楷体';-inkscape-font-specification:'方正楷体'" />
    </g>
  </g>
</svg>
