<?xml version="1.0" encoding="UTF-8" standalone="no"?>
<!-- Created with Inkscape (http://www.inkscape.org/) -->
<svg
   xmlns:dc="http://purl.org/dc/elements/1.1/"
   xmlns:cc="http://creativecommons.org/ns#"
   xmlns:rdf="http://www.w3.org/1999/02/22-rdf-syntax-ns#"
   xmlns:svg="http://www.w3.org/2000/svg"
   xmlns="http://www.w3.org/2000/svg"
   xmlns:sodipodi="http://sodipodi.sourceforge.net/DTD/sodipodi-0.dtd"
   xmlns:inkscape="http://www.inkscape.org/namespaces/inkscape"
   width="48"
   height="48"
   id="svg2"
   sodipodi:version="0.32"
   inkscape:version="0.46"
   version="1.0"
   sodipodi:docname="wubi86.svg"
   inkscape:output_extension="org.inkscape.output.svg.inkscape">
  <defs
     id="defs4">
    <inkscape:perspective
       sodipodi:type="inkscape:persp3d"
       inkscape:vp_x="0 : 526.18109 : 1"
       inkscape:vp_y="0 : 1000 : 0"
       inkscape:vp_z="744.09448 : 526.18109 : 1"
       inkscape:persp3d-origin="372.04724 : 350.78739 : 1"
       id="perspective10" />
  </defs>
  <sodipodi:namedview
     id="base"
     pagecolor="#ffffff"
     bordercolor="#666666"
     borderopacity="1.0"
     gridtolerance="10000"
     guidetolerance="10"
     objecttolerance="10"
     inkscape:pageopacity="0.0"
     inkscape:pageshadow="2"
     inkscape:zoom="5.6"
     inkscape:cx="3.5293156"
     inkscape:cy="26.615143"
     inkscape:document-units="px"
     inkscape:current-layer="layer1"
     showgrid="false"
     inkscape:window-width="1020"
     inkscape:window-height="737"
     inkscape:window-x="-4"
     inkscape:window-y="0" />
  <metadata
     id="metadata7">
    <rdf:RDF>
      <cc:Work
         rdf:about="">
        <dc:format>image/svg+xml</dc:format>
        <dc:type
           rdf:resource="http://purl.org/dc/dcmitype/StillImage" />
      </cc:Work>
    </rdf:RDF>
  </metadata>
  <g
     inkscape:label="Layer 1"
     inkscape:groupmode="layer"
     id="layer1">
    <g
       id="g2381"
       transform="matrix(1.0830701,0,0,1.0830701,-0.9732878,-1.2418151)">
      <path
         id="text3157"
         d="M 19.290336,24.361297 C 17.75358,29.586266 16.677849,32.659787 16.216822,33.889191 C 13.143311,34.503893 10.991847,34.811245 9.7624423,34.811245 C 8.5330378,34.964921 7.4573058,34.964921 6.5352525,34.964921 C 5.6131991,34.964921 5.766875,35.425949 6.8426039,36.194326 C 7.7646572,37.11638 8.9940651,37.423732 10.377145,37.116381 L 15.294768,36.194326 C 17.138874,35.886975 20.827099,35.579623 26.359418,35.272272 C 31.891738,34.964921 35.887315,35.118597 38.346123,35.425948 C 40.804932,35.733299 41.880664,35.579623 41.419638,34.657569 C 40.804935,33.735516 40.036555,33.120812 38.960826,32.659785 C 37.885097,32.352434 36.502013,32.198758 34.811582,32.352434 C 33.121151,32.659785 30.969687,32.813461 28.510878,32.967137 C 28.818229,31.430381 29.432933,29.586269 30.047635,27.742163 C 30.662338,25.898056 31.277042,24.822324 31.891744,24.207621 C 32.506446,23.592919 32.35277,22.978215 31.584392,22.363513 C 30.816015,21.748811 30.047635,21.287783 29.432933,20.980432 C 28.664555,20.673081 27.896175,20.826756 27.281473,21.134107 C 26.66677,21.441458 24.976334,21.902486 22.210174,22.363513 C 23.132228,18.982651 23.746932,16.984863 24.207959,16.216485 C 24.668985,15.601783 24.207957,14.833403 22.824877,13.911349 C 24.361633,13.603998 26.052069,13.450322 27.896175,13.142971 C 29.740282,12.989295 31.430718,12.681943 32.813798,12.374592 C 34.196878,12.067241 34.350554,11.606213 33.428501,10.991511 C 32.352772,10.376809 31.123364,10.069457 29.89396,10.376808 C 28.664555,10.684159 26.974119,11.145187 24.822661,11.452538 C 22.671204,11.759889 20.827091,12.067241 19.13666,12.220916 C 17.292554,12.528268 16.063145,12.528268 15.141092,12.528268 C 14.219039,12.528268 14.065363,12.989296 14.987416,13.603998 C 15.90947,14.372376 16.67785,14.679728 17.292552,14.679728 C 17.907254,14.679728 19.136662,14.372376 20.980769,14.065025 C 21.28812,15.140754 20.827092,18.060598 19.751363,22.670864 C 16.985203,23.131891 15.141091,23.285567 13.911686,23.285567 C 12.682282,23.285567 12.37493,23.592919 13.296983,24.207621 C 14.219037,24.975999 14.987417,25.283351 15.755795,25.129676 L 19.290336,24.361297 M 26.359418,33.120812 L 18.521957,33.735515 L 21.902823,23.90027 C 23.74693,23.592919 25.28369,23.439243 26.359418,23.285567 C 27.281472,23.285567 27.896175,23.746595 27.896175,24.668649 C 27.896175,25.590702 27.281472,28.510546 26.359418,33.120812"
         style="font-size:39.34098053px;font-style:normal;font-variant:normal;font-weight:normal;font-stretch:normal;fill:#000000;fill-opacity:0.68595048;stroke:none;stroke-width:1px;stroke-linecap:butt;stroke-linejoin:miter;stroke-opacity:1;font-family:Brioso Pro;-inkscape-font-specification:Brioso Pro" />
      <path
         id="text2383"
         d="M 17.952365,23.485027 C 16.415609,28.709996 15.339877,31.783516 14.87885,33.012921 C 11.805339,33.627623 9.6538752,33.934975 8.4244708,33.934975 C 7.1950664,34.08865 6.1193343,34.088651 5.197281,34.088651 C 4.2752277,34.088651 4.4289036,34.549678 5.5046324,35.318056 C 6.4266857,36.24011 7.6560937,36.547462 9.0391736,36.24011 L 13.956796,35.318056 C 15.800903,35.010705 19.489127,34.703353 25.021447,34.396002 C 30.553767,34.088651 34.549343,34.242327 37.008152,34.549678 C 39.466961,34.857029 40.542693,34.703352 40.081666,33.781299 C 39.466964,32.859246 38.698584,32.244542 37.622855,31.783515 C 36.547126,31.476164 35.164042,31.322488 33.473611,31.476164 C 31.78318,31.783515 29.631716,31.937191 27.172907,32.090866 C 27.480258,30.554111 28.094962,28.709999 28.709664,26.865892 C 29.324366,25.021786 29.93907,23.946053 30.553772,23.331351 C 31.168475,22.716649 31.014799,22.101945 30.246421,21.487243 C 29.478043,20.872541 28.709663,20.411512 28.094961,20.104161 C 27.326583,19.79681 26.558203,19.950486 25.943501,20.257837 C 25.328799,20.565188 23.638363,21.026216 20.872203,21.487243 C 21.794256,18.106381 22.40896,16.108592 22.869987,15.340215 C 23.331014,14.725512 22.869986,13.957132 21.486906,13.035079 C 23.023661,12.727728 24.714097,12.574052 26.558204,12.2667 C 28.402311,12.113025 30.092747,11.805673 31.475827,11.498322 C 32.858907,11.190971 33.012583,10.729943 32.090529,10.115241 C 31.014801,9.5005383 29.785393,9.1931866 28.555988,9.5005377 C 27.326584,9.8078888 25.636148,10.268917 23.48469,10.576268 C 21.333232,10.883619 19.48912,11.190971 17.798689,11.344646 C 15.954582,11.651997 14.725174,11.651998 13.80312,11.651998 C 12.881067,11.651998 12.727391,12.113025 13.649445,12.727728 C 14.571498,13.496105 15.339878,13.803457 15.95458,13.803457 C 16.569283,13.803457 17.798691,13.496106 19.642797,13.188755 C 19.950148,14.264484 19.489121,17.184328 18.413392,21.794594 C 15.647232,22.255621 13.803119,22.409297 12.573715,22.409297 C 11.34431,22.409297 11.036959,22.716649 11.959012,23.331351 C 12.881065,24.099729 13.649446,24.407081 14.417823,24.253405 L 17.952365,23.485027 M 25.021447,32.244542 L 17.183986,32.859245 L 20.564852,23.024 C 22.408958,22.716649 23.945718,22.562973 25.021447,22.409297 C 25.9435,22.409297 26.558204,22.870325 26.558204,23.792378 C 26.558204,24.714432 25.9435,27.634276 25.021447,32.244542"
         style="font-size:39.34098053px;font-style:normal;font-variant:normal;font-weight:normal;font-stretch:normal;fill:#ff0000;fill-opacity:1;stroke:none;stroke-width:1px;stroke-linecap:butt;stroke-linejoin:miter;stroke-opacity:1;font-family:Brioso Pro;-inkscape-font-specification:Brioso Pro" />
    </g>
  </g>
</svg>
